<svg xmlns="http://www.w3.org/2000/svg" version="1.1" viewBox="-5.0 -10.0 110.0 135.0">
 <path d="m99.199 71.898s-0.10156-5.3984-3-9.1992c-2.8008-3.6992-5.8984-6.6016-10.398-7.8008h-0.10156c-0.19922-0.19922-0.30078-0.5-0.39844-0.80078-1.1016-9.8008-3.6992-18-7.8008-24.199-2.3984-3.5-5.3008-6.5-8.6992-8.8984 8.1992 10.398 12.602 25.102 14 45.801 0 0.80078-0.5 1.5-1.3008 1.6016h-0.10156c-0.69922 0-1.3008-0.60156-1.5-1.3008-1.6016-24.301-7.5-40.102-18.801-50-0.10156-0.10156-0.19922-0.10156-0.30078-0.19922-5.8008-4.6016-15.5-5.1016-22.699-3.8984l-0.69922-0.003906c-0.69922 0.10156-1.3008 0.19922-2.6992 0.5-0.19922 0.10156-0.39844 0.10156-0.60156 0.19922 2.8008 0.5 6.1016 1.6992 7.8008 3 0.30078 0.39844 0.39844 0.69922 0.39844 1.1016-0.10156 0.39844-0.19922 0.80078-0.5 1-0.5 0.5-1.5 0.5-2 0-3.3984-1.6992-5.8008-2.6016-7.5-2.6992 1.1992 0.5 2.5 1 3.6016 1.8984 16.699 8.6016 18 31.199 19.301 53l0.10156 1.1992c0.10156 0.39844-0.10156 0.69922-0.30078 1-0.30078 0.30078-0.60156 0.5-1 0.5-0.80078 0-1.5-0.60156-1.6016-1.3008l-0.10156-1.6992c-0.60156-10.602-1.3008-21.5-3.6992-30.398-2.6992-10-7.1992-16.301-14.102-19.801l-0.19922-0.10156c-4-2.6992-8.3984-2.8008-12.898-0.10156-10.098 6.2031-17.898 23.902-16.398 37.902v0.10156c0.10156 3.6016 11.5 7.8984 20.801 11l0.39844 0.10156c0.69922 0.30078 1.1016 1.1016 0.89844 1.8984-0.19922 0.60156-0.69922 1-1.3008 1-0.19922 0-1.1992-0.39844-1.1992-0.39844-11.797-4.0039-22.098-7.7031-22.398-13.301 0-0.30078 0-0.60156-0.10156-0.60156-0.89844 0.80078-1.1992 1.1016-1.3008 1.5-0.59766 1.3984-0.29688 4.3984 0.20312 5.5 3.5 6.3008 14 9.5 28.602 14.898l3 1.1016c3.3008 1.1992 6.6992 2.5 10 3.6992 6 2.3984 11.699 3.5 17.699 3.5 5.8008 0 12.102-1 21.199-3.3984 11.398-3.1016 18.199-5.4023 17.699-12.902zm-14.699-3.5977c1.1016-2 1.6992-3.3008 1.1016-8 0-0.30078 0.10156-0.69922 0.30078-1 0.19922-0.30078 0.5-0.5 0.89844-0.5 0.39844 0 0.69922 0.10156 1 0.30078 0.30078 0.30078 0.5 0.60156 0.5 1 0.5 5.1992 0 7-1.5 9.6016-0.30078 0.39844-0.69922 0.69922-1.1992 0.69922-0.30078 0-0.5-0.10156-0.69922-0.19922-0.39844-0.19922-0.60156-0.5-0.60156-0.80078 0-0.30078 0-0.80078 0.19922-1.1016zm-54.602 3.8008c0.10156-0.30078 0.39844-0.60156 0.69922-0.80078 0.30078-0.19922 0.60156-0.19922 1-0.10156 13 4.1992 24 5.1016 35.801 2.6016 4.8984-1 8.1016-1.8984 13.301-3.3008 0.80078-0.19922 1.6016 0.19922 1.8984 0.89844 0.10156 0.39844 0.10156 0.80078-0.10156 1.1016-0.19922 0.39844-0.39844 0.60156-0.80078 0.69922-5.6992 1.6992-9 2.3984-13.602 3.3008-3.8008 0.80078-8.1016 1.1992-12.5 1.1992-9 0-16-1.1016-24.699-3.8984-0.79297-0.30078-1.1953-1-0.99609-1.6992z"/>
<text x="0.0" y="117.5" font-size="5.0" font-weight="bold" font-family="Arbeit Regular, Helvetica, Arial-Unicode, Arial, Sans-serif" fill="#000000">Created by Zach Hainsworth</text><text x="0.0" y="122.5" font-size="5.0" font-weight="bold" font-family="Arbeit Regular, Helvetica, Arial-Unicode, Arial, Sans-serif" fill="#000000">from Noun Project</text></svg>